<?xml version="1.0" encoding="UTF-8" standalone="no"?><!DOCTYPE svg PUBLIC "-//W3C//DTD SVG 1.1//EN" "http://www.w3.org/Graphics/SVG/1.1/DTD/svg11.dtd"><svg width="100%" height="100%" viewBox="0 0 1256 505" version="1.1" xmlns="http://www.w3.org/2000/svg" xmlns:xlink="http://www.w3.org/1999/xlink" xml:space="preserve" xmlns:serif="http://www.serif.com/" style="fill-rule:evenodd;clip-rule:evenodd;stroke-linejoin:round;stroke-miterlimit:2;"><path d="M1149.16,70.453l-318.709,0c-34.947,0 -63.544,28.594 -63.544,63.541l0,0.003c0,34.944 28.597,63.544 63.544,63.544l318.709,-0c34.95,-0 63.544,-28.6 63.544,-63.544l0,-0.003c0,-34.947 -28.594,-63.541 -63.544,-63.541Z" style="fill:#f39e73;"/><path d="M1192.17,172.675l-369.931,-0c-34.947,-0 -63.541,28.594 -63.541,63.541l0,0.009c0,34.944 28.594,63.537 63.541,63.537l369.931,0c34.95,0 63.541,-28.593 63.541,-63.537l-0,-0.009c-0,-34.947 -28.591,-63.541 -63.541,-63.541Z" style="fill:#f39e73;"/><path d="M1149.16,279.731l-318.709,0c-34.947,0 -63.544,28.597 -63.544,63.547c0,34.95 28.597,63.541 63.544,63.541l318.709,-0c34.95,-0 63.544,-28.591 63.544,-63.541c0,-34.95 -28.594,-63.547 -63.544,-63.547Z" style="fill:#f39e73;"/><path d="M1090.12,377.122l-259.666,-0c-34.944,-0 -63.544,28.597 -63.544,63.54l0,0.004c0,34.95 28.6,63.543 63.544,63.543l259.666,0c34.95,0 63.54,-28.593 63.54,-63.543l0,-0.004c0,-34.943 -28.59,-63.54 -63.54,-63.54Z" style="fill:#f39e73;"/><rect x="545.656" y="70.453" width="300.456" height="433.756" style="fill:#e68f63;"/><rect x="0" y="148.5" width="498.684" height="328.769" style="fill:#e68f63;"/><path d="M437.903,100.841l107.753,-0c59.26,-0 107.747,48.487 107.747,107.75l0,0.003c0,59.262 -48.487,107.747 -107.747,107.747l-0.006,-0c-59.259,-0 -107.747,-48.485 -107.747,-107.747l0,-107.753Z" style="fill:#f39e73;"/><path d="M437.903,208.591l127.088,-0l-0,-208.591l-63.544,-0c-34.95,-0 -63.544,28.594 -63.544,63.541l0,145.05Z" style="fill:#f39e73;"/><path d="M545.65,288.709l0.006,0c59.26,0 107.747,48.488 107.747,107.75l0,0.007c0,59.262 -48.487,107.743 -107.747,107.743l-0.006,0c-59.259,0 -107.747,-48.481 -107.747,-107.743l0,-0.007c0,-59.262 48.488,-107.75 107.747,-107.75Z" style="fill:#f39e73;"/><path d="M731.744,-0l-187.878,-0c-34.947,-0 -63.541,28.594 -63.541,63.541l-0,63.546l314.959,0l0,-63.546c0,-34.947 -28.597,-63.541 -63.54,-63.541Z" style="fill:#f39e73;"/><path d="M731.741,208.591c-34.95,-0 -63.544,-28.594 -63.544,-63.544l-0,-81.506c-0,-34.947 28.594,-63.541 63.544,-63.541c34.946,-0 63.543,28.594 63.543,63.541l0,81.506c0,34.95 -28.597,63.544 -63.543,63.544Z" style="fill:#f39e73;"/></svg>