<?xml version="1.0" encoding="UTF-8" standalone="no"?><!DOCTYPE svg PUBLIC "-//W3C//DTD SVG 1.1//EN" "http://www.w3.org/Graphics/SVG/1.1/DTD/svg11.dtd"><svg width="100%" height="100%" viewBox="0 0 1214 505" version="1.1" xmlns="http://www.w3.org/2000/svg" xmlns:xlink="http://www.w3.org/1999/xlink" xml:space="preserve" xmlns:serif="http://www.serif.com/" style="fill-rule:evenodd;clip-rule:evenodd;stroke-linejoin:round;stroke-miterlimit:2;"><path d="M1134.47,9l-384.147,81.456c-34.191,7.253 -56.231,41.153 -48.975,75.344l0,0.003c7.244,34.185 41.144,56.228 75.335,48.978l384.146,-81.456c34.191,-7.253 56.232,-41.153 48.982,-75.341l0,-0.003c-7.25,-34.19 -41.15,-56.228 -75.341,-48.981Z" style="fill:#f39e73;"/><path d="M1161.4,259.569l-432.556,-80.475c-34.353,-6.388 -67.7,16.494 -74.087,50.853c-6.391,34.359 16.49,67.703 50.843,74.094l432.557,80.472c34.353,6.39 67.697,-16.491 74.09,-50.85l0,-0.004c6.391,-34.359 -16.49,-67.7 -50.847,-74.09Z" style="fill:#f39e73;"/><rect x="545.647" y="70.453" width="300.462" height="433.756" style="fill:#e68f63;"/><rect x="0" y="148.5" width="498.684" height="328.769" style="fill:#e68f63;"/><path d="M437.905,175.838l107.747,0c59.26,0 107.747,48.487 107.747,107.753l0,0.003c0,59.259 -48.487,107.743 -107.747,107.743l-0.006,0c-59.259,0 -107.741,-48.484 -107.741,-107.743l0,-107.756Z" style="fill:#f39e73;"/><path d="M437.905,208.591l127.085,0l0,-208.591l-63.547,0c-34.95,0 -63.538,28.594 -63.538,63.541l0,145.05Z" style="fill:#f39e73;"/><path d="M545.646,288.709l0.006,0c59.26,0 107.747,48.488 107.747,107.75l0,0.004c0,59.265 -48.487,107.746 -107.747,107.746l-0.006,-0c-59.259,-0 -107.741,-48.481 -107.741,-107.746l0,-0.004c0,-59.262 48.482,-107.75 107.741,-107.75Z" style="fill:#f39e73;"/><path d="M861.387,279.731l-104.919,0c-34.947,0 -63.541,28.6 -63.541,63.544l0,0.003c0,34.947 28.594,63.541 63.541,63.541l104.919,0c34.95,0 63.543,-28.594 63.543,-63.541l0,-0.003c0,-34.944 -28.593,-63.544 -63.543,-63.544Z" style="fill:#f6b290;"/><path d="M830.662,377.122l-74.194,0c-34.947,0 -63.541,28.597 -63.541,63.54l0,0.007c0,34.947 28.594,63.54 63.541,63.54l74.194,0c34.947,0 63.54,-28.593 63.54,-63.54l0,-0.007c0,-34.943 -28.593,-63.54 -63.54,-63.54Z" style="fill:#f6b290;"/><path d="M731.737,0l-187.875,0c-34.95,0 -63.541,28.594 -63.541,63.541l0,63.546l314.956,-0l0,-63.546c0,-34.947 -28.59,-63.541 -63.54,-63.541Z" style="fill:#f39e73;"/><path d="M731.737,208.591c-34.947,0 -63.547,-28.594 -63.547,-63.544l0,-81.506c0,-34.947 28.6,-63.541 63.547,-63.541c34.95,0 63.54,28.594 63.54,63.541l0,81.506c0,34.95 -28.59,63.544 -63.54,63.544Z" style="fill:#f39e73;"/></svg>