<?xml version="1.0" encoding="UTF-8" standalone="no"?><!DOCTYPE svg PUBLIC "-//W3C//DTD SVG 1.1//EN" "http://www.w3.org/Graphics/SVG/1.1/DTD/svg11.dtd"><svg width="100%" height="100%" viewBox="0 0 948 505" version="1.1" xmlns="http://www.w3.org/2000/svg" xmlns:xlink="http://www.w3.org/1999/xlink" xml:space="preserve" xmlns:serif="http://www.serif.com/" style="fill-rule:evenodd;clip-rule:evenodd;stroke-linejoin:round;stroke-miterlimit:2;"><rect x="101.213" y="107.056" width="300.456" height="397.153" style="fill:#e68f63;"/><rect x="448.641" y="148.497" width="498.684" height="328.775" style="fill:#e68f63;"/><path d="M509.422,100.841l-107.753,-0c-59.26,-0 -107.747,48.487 -107.747,107.75l-0,0.003c-0,59.262 48.487,107.747 107.747,107.747l0.006,0c59.259,0 107.747,-48.485 107.747,-107.747l-0,-107.753Z" style="fill:#f39e73;"/><path d="M509.422,208.594l-127.088,0l-0,-208.594l63.544,0c34.95,0 63.544,28.597 63.544,63.544l-0,145.05Z" style="fill:#f39e73;"/><path d="M85.934,70.45l104.919,0c34.947,0 63.541,28.597 63.541,63.544l-0,0.003c-0,34.947 -28.594,63.54 -63.541,63.54l-104.919,0c-34.95,0 -63.543,-28.593 -63.543,-63.54l-0,-0.003c-0,-34.947 28.593,-63.544 63.543,-63.544Z" style="fill:#f6b290;"/><path d="M401.675,288.709l-0.006,0c-59.26,0 -107.747,48.488 -107.747,107.754l-0,0.003c-0,59.259 48.487,107.743 107.747,107.743l0.006,0c59.259,0 107.747,-48.484 107.747,-107.743l-0,-0.003c-0,-59.266 -48.488,-107.754 -107.747,-107.754Z" style="fill:#f39e73;"/><path d="M63.544,172.675l131.581,0c34.947,0 63.541,28.597 63.541,63.547c-0,34.947 -28.594,63.541 -63.541,63.541l-131.581,0c-34.947,0 -63.544,-28.594 -63.544,-63.541c-0,-34.95 28.597,-63.547 63.544,-63.547Z" style="fill:#f6b290;"/><path d="M85.934,279.734l104.919,0c34.947,0 63.541,28.594 63.541,63.541l-0,0.003c-0,34.947 -28.594,63.544 -63.541,63.544l-104.919,0c-34.95,0 -63.543,-28.597 -63.543,-63.544l-0,-0.003c-0,-34.947 28.593,-63.541 63.543,-63.541Z" style="fill:#f6b290;"/><path d="M116.659,377.122l74.194,0c34.947,0 63.541,28.597 63.541,63.544l-0,0.003c-0,34.947 -28.594,63.54 -63.541,63.54l-74.194,0c-34.95,0 -63.543,-28.593 -63.543,-63.54l-0,-0.003c-0,-34.947 28.593,-63.544 63.543,-63.544Z" style="fill:#f6b290;"/><path d="M215.581,0l187.878,0c34.947,0 63.541,28.597 63.541,63.544l-0,63.547l-314.959,-0l-0,-63.547c-0,-34.947 28.597,-63.544 63.54,-63.544Z" style="fill:#f39e73;"/><path d="M215.584,208.594c34.95,0 63.544,-28.597 63.544,-63.544l-0,-81.506c-0,-34.947 -28.594,-63.544 -63.544,-63.544c-34.946,0 -63.543,28.597 -63.543,63.544l-0,81.506c-0,34.947 28.597,63.544 63.543,63.544Z" style="fill:#f39e73;"/></svg>