<?xml version="1.0" encoding="UTF-8" standalone="no"?><!DOCTYPE svg PUBLIC "-//W3C//DTD SVG 1.1//EN" "http://www.w3.org/Graphics/SVG/1.1/DTD/svg11.dtd"><svg width="100%" height="100%" viewBox="0 0 1256 505" version="1.1" xmlns="http://www.w3.org/2000/svg" xmlns:xlink="http://www.w3.org/1999/xlink" xml:space="preserve" xmlns:serif="http://www.serif.com/" style="fill-rule:evenodd;clip-rule:evenodd;stroke-linejoin:round;stroke-miterlimit:2;"><path d="M106.551,70.453l318.709,0c34.947,0 63.544,28.594 63.544,63.541l0,0.003c0,34.944 -28.597,63.544 -63.544,63.544l-318.709,0c-34.95,0 -63.544,-28.6 -63.544,-63.544l-0,-0.003c-0,-34.947 28.594,-63.541 63.544,-63.541Z" style="fill:#f39e73;"/><path d="M63.541,172.675l369.931,0c34.947,0 63.541,28.594 63.541,63.541l-0,0.009c-0,34.944 -28.594,63.537 -63.541,63.537l-369.931,0c-34.95,0 -63.541,-28.593 -63.541,-63.537l0,-0.009c0,-34.947 28.591,-63.541 63.541,-63.541Z" style="fill:#f39e73;"/><path d="M106.551,279.731l318.709,0c34.947,0 63.544,28.597 63.544,63.547c0,34.95 -28.597,63.541 -63.544,63.541l-318.709,0c-34.95,0 -63.544,-28.591 -63.544,-63.541c-0,-34.95 28.594,-63.547 63.544,-63.547Z" style="fill:#f39e73;"/><path d="M165.591,377.122l259.666,0c34.944,0 63.544,28.597 63.544,63.54l0,0.004c0,34.95 -28.6,63.543 -63.544,63.543l-259.666,0c-34.95,0 -63.54,-28.593 -63.54,-63.543l0,-0.004c0,-34.943 28.59,-63.54 63.54,-63.54Z" style="fill:#f39e73;"/><rect x="409.599" y="70.453" width="300.456" height="433.756" style="fill:#e68f63;"/><rect x="757.027" y="148.5" width="498.684" height="328.769" style="fill:#e68f63;"/><path d="M817.808,100.841l-107.753,-0c-59.26,-0 -107.747,48.487 -107.747,107.75l0,0.003c0,59.262 48.487,107.747 107.747,107.747l0.006,0c59.259,0 107.747,-48.485 107.747,-107.747l0,-107.753Z" style="fill:#f39e73;"/><path d="M817.808,208.591l-127.088,0l0,-208.591l63.544,0c34.95,0 63.544,28.594 63.544,63.541l0,145.05Z" style="fill:#f39e73;"/><path d="M710.061,288.709l-0.006,0c-59.26,0 -107.747,48.488 -107.747,107.75l0,0.007c0,59.262 48.487,107.743 107.747,107.743l0.006,0c59.259,0 107.747,-48.481 107.747,-107.743l0,-0.007c0,-59.262 -48.488,-107.75 -107.747,-107.75Z" style="fill:#f39e73;"/><path d="M523.967,0l187.878,0c34.947,0 63.541,28.594 63.541,63.541l-0,63.546l-314.959,-0l-0,-63.546c-0,-34.947 28.597,-63.541 63.54,-63.541Z" style="fill:#f39e73;"/><path d="M523.97,208.591c34.95,0 63.544,-28.594 63.544,-63.544l0,-81.506c0,-34.947 -28.594,-63.541 -63.544,-63.541c-34.946,0 -63.543,28.594 -63.543,63.541l0,81.506c0,34.95 28.597,63.544 63.543,63.544Z" style="fill:#f39e73;"/></svg>